<svg height="48" width="151" data-name="Makane Logo" xmlns="http://www.w3.org/2000/svg" viewBox="0 0 378.09 119.91"><path class="fill-primary" d="M39.13,31.67h0A29.7,29.7,0,0,1,64.4,45.77l4.8,7.8L74,45.77a29.67,29.67,0,0,1,25.26-14.1h0V88.25H83.67V55.75L69.2,77.9h-.32l-14.39-22V88.25H39.13Z"></path><path class="fill-primary" d="M103.34,75.23v-.15c0-8.73,6.87-13.26,17.14-13.26A34.5,34.5,0,0,1,131,63.46v-.7c0-4.37-2.83-6.86-8.73-6.86a31.81,31.81,0,0,0-12,2.34l-3.15-10.45a45.3,45.3,0,0,1,17.7-3.27c7.84,0,13.18,1.79,16.65,5.14,3.32,3.12,4.69,7.49,4.69,13.41V88.25h-9.9a5.3,5.3,0,0,1-5.3-5.3h0a16.79,16.79,0,0,1-12.85,5.3C109.72,88.25,103.34,83.65,103.34,75.23ZM131.15,72v-2a16.51,16.51,0,0,0-6-1.09c-4.44,0-7,2.1-7,5.22v.15c0,2.89,2.26,4.6,5.42,4.6C128,79,131.15,76.25,131.15,72Z"></path><path class="fill-primary" d="M151.05,31.66h0A15.36,15.36,0,0,1,166.41,47V59.15L178.3,44.52h17.37L180.48,62.06l15.6,26.19h-16.9l-8.81-14.87-4,4.6V88.25H151.05Z"></path><path class="fill-primary" d="M196.08,75.23v-.15c0-8.73,6.87-13.26,17.14-13.26a34.5,34.5,0,0,1,10.5,1.64v-.7c0-4.37-2.82-6.86-8.73-6.86a31.81,31.81,0,0,0-12,2.34L199.8,47.79a45.3,45.3,0,0,1,17.7-3.27c7.84,0,13.18,1.79,16.65,5.14,3.32,3.12,4.69,7.49,4.69,13.41V88.25h-9.9a5.3,5.3,0,0,1-5.3-5.3h0a16.79,16.79,0,0,1-12.85,5.3C202.47,88.25,196.08,83.65,196.08,75.23ZM223.89,72v-2a16.51,16.51,0,0,0-6-1.09c-4.44,0-7,2.1-7,5.22v.15c0,2.89,2.27,4.6,5.42,4.6C220.73,79,223.89,76.25,223.89,72Z"></path><path class="fill-primary" d="M243.79,44.52h15.36v7c2.83-3.56,6.87-7,13.1-7,9.29,0,14.87,6,14.87,15.74v28H271.76V65.08c0-4.67-2.5-7.2-6.14-7.2s-6.47,2.53-6.47,7.2V88.25H243.79Z"></path><path class="fill-primary" d="M293,31.67h32.18A13.33,13.33,0,0,1,338.55,45h-30v8.57h14.8a12.36,12.36,0,0,1,12.36,12.37H308.56v9h17.06A13.34,13.34,0,0,1,339,88.25H293Z"></path></svg>