<svg height="48" width="151" data-name="مكاني" xmlns="http://www.w3.org/2000/svg" viewBox="0 0 378.09 119.91"><circle class="fill-primary" cx="112.34" cy="98.19" r="10.46"></circle><circle class="fill-primary" cx="175.12" cy="21.72" r="10.46"></circle><circle class="fill-primary" cx="91.42" cy="98.19" r="10.46"></circle><path class="fill-primary" d="M164.61,59.92H157.5a20.86,20.86,0,0,0-20.86-20.85H115.85V60H60A20.87,20.87,0,0,0,39.13,80.85h81a16.61,16.61,0,0,0,16.61-16.61v-4.3h0a7,7,0,0,1,7,7v13.9h20.48v0h6.13a15.13,15.13,0,0,0,15.13-15.13V39.08h0A20.84,20.84,0,0,0,164.61,59.92Z"></path><path class="fill-primary" d="M338.89,56.75v0a19.38,19.38,0,0,0-1.31-5.36A20.12,20.12,0,0,0,320.31,39.1a3.14,3.14,0,0,0-.51-.05h-3.42v0a20.11,20.11,0,0,0-19.35,20v.81h-7V54.57a22.48,22.48,0,0,0-22.48-22.48H241.25V11.26A20.75,20.75,0,0,0,220.5,32V53l48.7,0v7l-55.87,0V18.13h-.07A20.75,20.75,0,0,0,192.5,38.88v42H214l82.64,0h25.54a16.92,16.92,0,0,0,8.19-2,16.43,16.43,0,0,0,8.53-14.4S339.05,57.78,338.89,56.75ZM318,63.4a3.48,3.48,0,1,1,3.49-3.48A3.48,3.48,0,0,1,318,63.4Z"></path></svg>